# xmcd
#
# Track frame offsets: 
#        150
#        14115
#        35490
#        49055
#        61290
#        72297
#        84285
#        97957
#        114692
#        123182
#        133325
#        144727
#        156782
#        169497
#        186227
#        199102
#        214042
#        224680
#        237777
#        251717
#
# Disc length: 3551 seconds
#
# Revision: 0
# Processed by: cddbd v1.5.2PL0 Copyright (c) Steve Scherf et al.
# Submitted via: ExactAudioCopy v1.3
#
DISCID=330ddd14
DTITLE=The Fabulous Thunderbirds - The Essential Fabulous Thunderbirds
DYEAR=1991
DGENRE=Blues Rock
TTITLE0=Wait On Time
TTITLE1=Full-Time Lover
TTITLE2=She's Tuff
TTITLE3=Marked Deck
TTITLE4=Walkin' To My Baby
TTITLE5=Rock With Me
TTITLE6=C-Boy's Blues
TTITLE7=Runnin' Shoes
TTITLE8=You Ain't Nothin' But Fine
TTITLE9=The Crawl
TTITLE10=I Believe I'm In Love
TTITLE11=One's Too  Many
TTITLE12=Give Me All You Lovin'
TTITLE13=Tip On In
TTITLE14=I'm Sorry
TTITLE15=Mathilda
TTITLE16=How Do You Spell Love
TTITLE17=My Babe
TTITLE18=Can't Tear It Up Enuff
TTITLE19=The Monkey
EXTD=
EXTT0=
EXTT1=
EXTT2=
EXTT3=
EXTT4=
EXTT5=
EXTT6=
EXTT7=
EXTT8=
EXTT9=
EXTT10=
EXTT11=
EXTT12=
EXTT13=
EXTT14=
EXTT15=
EXTT16=
EXTT17=
EXTT18=
EXTT19=
PLAYORDER=
